<?xml version="1.0" encoding="UTF-8"?>
<!DOCTYPE svg PUBLIC "-//W3C//DTD SVG 1.1//EN" "http://www.w3.org/Graphics/SVG/1.1/DTD/svg11.dtd">
<!-- Creator: CorelDRAW -->
<svg xmlns="http://www.w3.org/2000/svg" xml:space="preserve" width="8.5in" height="11in" style="shape-rendering:geometricPrecision; text-rendering:geometricPrecision; image-rendering:optimizeQuality; fill-rule:evenodd; clip-rule:evenodd"
viewBox="0 0 8.5 11"
 xmlns:xlink="http://www.w3.org/1999/xlink">
 <defs>
  <style type="text/css">
   <![CDATA[
    .str2 {stroke:#1F1A17;stroke-width:0.00694488}
    .str0 {stroke:#DD137B;stroke-width:0.0277795}
    .str1 {stroke:#FFF974;stroke-width:0.0555551}
    .str3 {stroke:#75C5F0;stroke-width:0.11111}
    .str4 {stroke:#75C5F0;stroke-width:0.13889}
    .fil0 {fill:none}
    .fil1 {fill:#DA251D}
   ]]>
  </style>
 </defs>
 <g id="Layer_x0020_1">
  <metadata id="CorelCorpID_0Corel-Layer"/>
  <path class="fil0 str0" d="M5.01989 2.29671l-0.930839 -0.00964567 -1.08204 -0.0112126 -0.640488 -0.0066378c-0.585161,-0.00606299 -0.536685,0.218429 -0.470539,0.749484 0.0338504,0.271772 -0.0775906,0.611087 0.0564055,0.893035 0.0815197,0.171528 0.287315,0.260988 0.355697,0.422165 0.0992244,0.233858 0.106209,0.487283 0.0471457,0.710343 -0.0863189,0.326008 -0.313736,0.587165 -0.600496,0.627606 -0.37915,0.0534724 -0.643661,0.0241339 -0.839701,0.152252 -0.172976,0.113047 -0.292654,0.348689 -0.390748,0.871976 -0.17474,0.93215 0.57776,0.775343 1.08609,0.446811 0.49198,-0.317965 0.89128,-0.0600906 1.03734,-0.307535 0.0549646,-0.093122 0.0740709,-0.257819 0.048748,-0.551717 -0.00939764,-0.109106 0.679496,-0.0721496 0.811134,-0.0549921 0.427413,0.0557205 -0.138311,0.982287 0.371197,1.19608 0.568012,0.238343 0.710173,-0.217811 0.648193,-0.77074 -0.0582244,-0.519413 -0.296598,-1.12424 -0.531335,-1.31896 -0.268677,-0.222882 -0.620189,-0.392531 -0.755138,-0.722807 -0.134949,-0.330276 -0.0628701,-0.76561 -0.0628701,-1.13318 0,-0.198244 -0.0624646,-0.38737 -0.0051063,-0.485614 0.0962992,-0.164945 0.706386,-0.108055 0.85661,-0.00160236 0.15539,0.11011 -0.0645,0.447972 0.0489921,0.445972l0.827161 -0.0145748 0.73324 -0.0129213c0.591697,-0.0104252 0.476335,-0.536173 1.51228,-0.536173 0.269315,0 0.59326,-0.093811 0.70587,0.00880709 0.121126,0.110386 0.154602,0.59611 0.00215354,0.712965 -0.0800945,0.0613976 -0.428854,-0.0259173 -0.632012,0.0797677 -0.264047,0.137366 -0.395882,0.482335 -0.540378,0.686866 -0.0918661,0.130035 -0.274413,0.241602 -0.474071,0.336339 -0.311465,0.147795 -0.664587,0.25465 -0.780071,0.326823 -0.111858,0.0699094 -0.185043,0.417972 -0.10311,0.728646 0.0751535,0.284972 0.458689,-0.00890157 0.618661,0.130606 0.112122,0.0977756 -0.095311,0.420228 0.0893622,0.618661 0.20326,0.218402 0.414217,0.483693 0.504528,0.75515 0.0841811,0.253028 0.0393346,0.941524 -0.00959843,0.99085 -0.0718543,0.0724409 -0.26602,0.040315 -0.735823,0.0113504 -0.169929,-0.0104764 -0.375925,-0.0205433 -0.625236,-0.0250984 -0.362323,-0.00661811 -0.622138,-0.00138976 -0.843531,0.00421654 -0.356949,0.00903543 -0.614051,0.0190709 -1.03995,-0.0179646"/>
  <rect class="fil0 str1" x="0.304319" y="1.95301" width="8.00135" height="6.68154"/>
  <circle class="fil1 str2" cx="1.21856" cy="3.23157" r="0.2"/>
  <circle class="fil1 str2" cx="2.63461" cy="3.21783" r="0.2"/>
  <circle class="fil1 str2" cx="2.62086" cy="3.96022" r="0.2"/>
  <circle class="fil1 str2" cx="1.93346" cy="4.85384" r="0.2"/>
  <circle class="fil1 str2" cx="1.91971" cy="6.06367" r="0.2"/>
  <circle class="fil1 str2" cx="1.19106" cy="6.70983" r="0.2"/>
  <circle class="fil1 str2" cx="1.9472" cy="7.5622" r="0.2"/>
  <circle class="fil1 str2" cx="3.29451" cy="6.61359" r="0.2"/>
  <circle class="fil1 str2" cx="3.98191" cy="4.30392" r="0.2"/>
  <circle class="fil1 str2" cx="4.68306" cy="3.02535" r="0.2"/>
  <circle class="fil1 str2" cx="4.62807" cy="5.40376" r="0.2"/>
  <circle class="fil1 str2" cx="5.34297" cy="4.4689" r="0.2"/>
  <circle class="fil1 str2" cx="5.31547" cy="6.62734" r="0.2"/>
  <circle class="fil1 str2" cx="7.30894" cy="4.48265" r="0.2"/>
  <circle class="fil1 str2" cx="6.62154" cy="3.53403" r="0.2"/>
  <circle class="fil1 str2" cx="7.28144" cy="6.98479" r="0.2"/>
  <path class="fil0 str3" d="M1.59663 1.95301l0 0.921118 -1.18233 0 0.013748 0m1.16858 -0.921118z"/>
  <path class="fil0 str4" d="M0.400551 4.37266l1.49854 0 0 0.041248m-1.49854 -0.041248z"/>
  <path class="fil0 str3" d="M1.36291 3.52028l0 0.86613 0 -0.0275m0 -0.83863z"/>
  <line class="fil0 str3" x1="0.373055" y1="5.14255" x2="1.87159" y2= "5.14255" />
  <line class="fil0 str3" x1="5.50107" y1="2.06299" x2="5.50107" y2= "3.12159" />
  <path class="fil0 str3" d="M5.48732 2.57167l-3.1483 0 0 1.0036 0.247469 0m2.90083 -1.0036z"/>
  <line class="fil0 str3" x1="1.54164" y1="6.03617" x2="1.54164" y2= "6.83356" />
  <line class="fil0 str3" x1="1.06046" y1="6.35238" x2="1.52789" y2= "6.35238" />
  <path class="fil0 str3" d="M2.21529 6.47611l0 -0.646161 1.746 0 0 1.23732m-1.746 -0.591161z"/>
  <line class="fil0 str3" x1="2.69647" y1="4.40016" x2="2.69647" y2= "5.8437" />
  <line class="fil0 str3" x1="3.17765" y1="5.11506" x2="2.65523" y2= "5.11506" />
  <line class="fil0 str3" x1="0.386803" y1="7.71343" x2="1.58288" y2= "7.71343" />
  <line class="fil0 str3" x1="1.59663" y1="7.39723" x2="1.59663" y2= "8.45582" />
  <line class="fil0 str3" x1="2.21529" y1="7.38348" x2="2.97143" y2= "7.38348" />
  <line class="fil0 str3" x1="2.97143" y1="6.66858" x2="2.97143" y2= "8.46957" />
  <line class="fil0 str3" x1="2.93019" y1="7.71343" x2="6.16098" y2= "7.71343" />
  <line class="fil0 str3" x1="5.68104" y1="6.88855" x2="5.68104" y2= "7.71343" />
  <line class="fil0 str3" x1="4.32499" y1="4.51014" x2="4.32499" y2= "5.29378" />
  <line class="fil0 str3" x1="3.61759" y1="3.34156" x2="3.61759" y2= "4.41391" />
  <path class="fil0 str3" d="M3.63134 3.71276l1.31981 0 0 2.61212m-1.31981 -2.61212z"/>
  <line class="fil0 str3" x1="5.41858" y1="6.15991" x2="4.92365" y2= "6.15991" />
  <line class="fil0 str3" x1="5.72104" y1="5.40376" x2="6.50468" y2= "5.40376" />
  <path class="fil0 str3" d="M7.3983 6.64109l0 -0.536181 -0.87987 0 0 -1.11359 1.63601 0m-0.756142 1.64977z"/>
  <path class="fil0 str3" d="M5.6523 4.18019l0 -0.274961 0.646161 0 0 -0.247457m-0.646161 0.522417z"/>
  <path class="fil0 str3" d="M6.90337 3.31406l0 -0.247461 0.618661 0 0 0.0274921m-0.618661 0.219969z"/>
  <line class="fil0 str3" x1="8.15444" y1="2.46169" x2="5.50107" y2= "2.46169" />
  <line class="fil0 str3" x1="6.88962" y1="7.14976" x2="6.88962" y2= "8.51082" />
 </g>
</svg>
