<?xml version="1.0" encoding="UTF-8"?>
<!DOCTYPE svg PUBLIC "-//W3C//DTD SVG 1.1//EN" "http://www.w3.org/Graphics/SVG/1.1/DTD/svg11.dtd">
<!-- Creator: CorelDRAW -->
<svg xmlns="http://www.w3.org/2000/svg" xml:space="preserve" width="8.5in" height="11in" style="shape-rendering:geometricPrecision; text-rendering:geometricPrecision; image-rendering:optimizeQuality; fill-rule:evenodd; clip-rule:evenodd"
viewBox="0 0 8.5 11"
 xmlns:xlink="http://www.w3.org/1999/xlink">
 <defs>
  <style type="text/css">
   <![CDATA[
    .str2 {stroke:#1F1A17;stroke-width:0.00694488}
    .str0 {stroke:#DD137B;stroke-width:0.0277795}
    .str1 {stroke:#FFF974;stroke-width:0.0555551}
    .str3 {stroke:#75C5F0;stroke-width:0.11111}
    .str4 {stroke:#75C5F0;stroke-width:0.13889}
    .fil0 {fill:none}
    .fil1 {fill:#DA251D}
   ]]>
  </style>
 </defs>
 <g id="Layer_x0020_1">
  <metadata id="CorelCorpID_0Corel-Layer"/>
  <polyline class="fil0 str0" points="5.0285,2.27948 4.31887,2.30064 3.69874,2.28636 2.89764,2.2905 1.92417,2.29553 1.96524,3.94983 2.30809,4.3339 2.46687,4.82809 2.17648,5.41091 1.614,5.68889 1.08005,5.75257 0.64474,6.22193 0.581957,7.2607 1.09224,7.37396 1.99435,6.98825 2.59531,6.89643 2.69669,6.27751 3.61325,6.27453 3.72454,7.39512 4.41385,7.37102 4.46375,6.30151 4.15318,5.52406 3.41323,4.87279 3.25664,3.74494 3.35178,2.90085 3.96883,2.91764 4.07814,3.43779 4.94779,3.44258 5.87747,3.4477 6.45523,2.76069 7.95117,2.76202 7.94834,3.7932 7.22329,3.88729 6.46941,4.5576 5.39333,5.06309 5.36259,5.82629 6.1365,5.8618 6.14748,6.62642 6.57854,7.46217 6.53216,8.2496 5.54139,8.24739 4.45596,8.23704 3.28762,8.2221 "/>
  <rect class="fil0 str1" x="0.304323" y="1.95301" width="8.00135" height="6.68154"/>
  <circle class="fil1 str2" cx="1.21856" cy="3.23157" r="0.2"/>
  <circle class="fil1 str2" cx="2.63461" cy="3.21783" r="0.2"/>
  <circle class="fil1 str2" cx="2.62086" cy="3.96022" r="0.2"/>
  <circle class="fil1 str2" cx="1.93346" cy="4.85384" r="0.2"/>
  <circle class="fil1 str2" cx="1.91971" cy="6.06367" r="0.2"/>
  <circle class="fil1 str2" cx="1.19106" cy="6.70983" r="0.2"/>
  <circle class="fil1 str2" cx="1.9472" cy="7.5622" r="0.2"/>
  <circle class="fil1 str2" cx="3.29451" cy="6.61359" r="0.2"/>
  <circle class="fil1 str2" cx="3.98191" cy="4.30392" r="0.2"/>
  <circle class="fil1 str2" cx="4.68306" cy="3.02535" r="0.2"/>
  <circle class="fil1 str2" cx="4.62807" cy="5.40376" r="0.2"/>
  <circle class="fil1 str2" cx="5.34297" cy="4.4689" r="0.2"/>
  <circle class="fil1 str2" cx="5.31547" cy="6.62734" r="0.2"/>
  <circle class="fil1 str2" cx="7.30894" cy="4.48265" r="0.2"/>
  <circle class="fil1 str2" cx="6.62154" cy="3.53403" r="0.2"/>
  <circle class="fil1 str2" cx="7.28144" cy="6.98479" r="0.2"/>
  <path class="fil0 str3" d="M1.59663 1.95301l0 0.921118 -1.18233 0 0.013748 0m1.16858 -0.921118z"/>
  <path class="fil0 str4" d="M0.400551 4.37266l1.49854 0 0 0.041248m-1.49854 -0.041248z"/>
  <path class="fil0 str3" d="M1.36291 3.52028l0 0.86613 0 -0.0275m0 -0.83863z"/>
  <line class="fil0 str3" x1="0.373055" y1="5.14255" x2="1.87159" y2= "5.14255" />
  <line class="fil0 str3" x1="5.50107" y1="2.06299" x2="5.50107" y2= "3.12159" />
  <path class="fil0 str3" d="M5.48732 2.57167l-3.1483 0 0 1.0036 0.247469 0m2.90083 -1.0036z"/>
  <line class="fil0 str3" x1="1.54164" y1="6.03617" x2="1.54164" y2= "6.83356" />
  <line class="fil0 str3" x1="1.06046" y1="6.35238" x2="1.52789" y2= "6.35238" />
  <path class="fil0 str3" d="M2.21529 6.47611l0 -0.646161 1.746 0 0 1.23732m-1.746 -0.591161z"/>
  <line class="fil0 str3" x1="2.69647" y1="4.40016" x2="2.69647" y2= "5.8437" />
  <line class="fil0 str3" x1="3.17765" y1="5.11506" x2="2.65523" y2= "5.11506" />
  <line class="fil0 str3" x1="0.386803" y1="7.71343" x2="1.58288" y2= "7.71343" />
  <line class="fil0 str3" x1="1.59663" y1="7.39723" x2="1.59663" y2= "8.45582" />
  <line class="fil0 str3" x1="2.21529" y1="7.38348" x2="2.97143" y2= "7.38348" />
  <line class="fil0 str3" x1="2.97143" y1="6.66858" x2="2.97143" y2= "8.46957" />
  <line class="fil0 str3" x1="2.93019" y1="7.71343" x2="6.16098" y2= "7.71343" />
  <line class="fil0 str3" x1="5.68104" y1="6.88855" x2="5.68104" y2= "7.71343" />
  <line class="fil0 str3" x1="4.32499" y1="4.51014" x2="4.32499" y2= "5.29378" />
  <line class="fil0 str3" x1="3.61759" y1="3.34156" x2="3.61759" y2= "4.41391" />
  <path class="fil0 str3" d="M3.63134 3.71276l1.31981 0 0 2.61212m-1.31981 -2.61212z"/>
  <line class="fil0 str3" x1="5.41858" y1="6.15991" x2="4.92365" y2= "6.15991" />
  <line class="fil0 str3" x1="5.72104" y1="5.40376" x2="6.50468" y2= "5.40376" />
  <path class="fil0 str3" d="M7.3983 6.64109l0 -0.536181 -0.87987 0 0 -1.11359 1.63601 0m-0.756142 1.64977z"/>
  <path class="fil0 str3" d="M5.6523 4.18019l0 -0.274961 0.646161 0 0 -0.247457m-0.646161 0.522417z"/>
  <path class="fil0 str3" d="M6.90337 3.31406l0 -0.247461 0.618661 0 0 0.0274921m-0.618661 0.219969z"/>
  <line class="fil0 str3" x1="8.15444" y1="2.46169" x2="5.50107" y2= "2.46169" />
  <line class="fil0 str3" x1="6.88962" y1="7.14976" x2="6.88962" y2= "8.51082" />
 </g>
</svg>
