<?xml version="1.0" encoding="UTF-8"?>
<!DOCTYPE svg PUBLIC "-//W3C//DTD SVG 1.1//EN" "http://www.w3.org/Graphics/SVG/1.1/DTD/svg11.dtd">
<!-- Creator: CorelDRAW -->
<svg xmlns="http://www.w3.org/2000/svg" xml:space="preserve" width="11in" height="8.5in" style="shape-rendering:geometricPrecision; text-rendering:geometricPrecision; image-rendering:optimizeQuality; fill-rule:evenodd; clip-rule:evenodd"
viewBox="0 0 11 8.5"
 xmlns:xlink="http://www.w3.org/1999/xlink">
 <defs>
  <style type="text/css">
   <![CDATA[
    .str3 {stroke:#1F1A17;stroke-width:0.003}
    .str1 {stroke:#1F1A17;stroke-width:0.00694488}
    .str0 {stroke:#DA251D;stroke-width:0.00694488}
    .str2 {stroke:#1F1A17;stroke-width:0.22222}
    .fil0 {fill:none}
   ]]>
  </style>
 </defs>
 <g id="Layer_x0020_1">
  <metadata id="CorelCorpID_0Corel-Layer"/>
  <path class="fil0 str0" d="M6.58879 0.117591l-0.0025748 0.846319 0 2.99303m0.0025748 -3.83935z"/>
  <line class="fil0 str0" x1="4.06793" y1="0.984547" x2="6.58621" y2= "0.984547" />
  <line class="fil0 str0" x1="4.06793" y1="1.9031" x2="4.06793" y2= "0.994866" />
  <line class="fil0 str0" x1="3.3042" y1="0.117591" x2="3.3042" y2= "0.747161" />
  <line class="fil0 str0" x1="0.569177" y1="1.05679" x2="1.7251" y2= "1.05679" />
  <line class="fil0 str0" x1="0.569177" y1="2.60492" x2="1.69415" y2= "2.60492" />
  <line class="fil0 str0" x1="1.43612" y1="4.09112" x2="1.43612" y2= "4.90645" />
  <line class="fil0 str0" x1="2.4166" y1="4.11175" x2="2.4166" y2= "4.89614" />
  <line class="fil0 str0" x1="3.28355" y1="4.00854" x2="3.28355" y2= "4.9787" />
  <path class="fil0 str0" d="M1.29163 5.63923l1.08369 0 0 1.87839m-1.08369 -1.87839z"/>
  <line class="fil0 str0" x1="3.27323" y1="6.57843" x2="3.27323" y2= "7.02222" />
  <line class="fil0 str0" x1="3.27323" y1="8.34329" x2="3.27323" y2= "7.84789" />
  <path class="fil0 str0" d="M4.08858 7.63116l0 -1.37267 0.846303 0m-0.846303 1.37267z"/>
  <path class="fil0 str0" d="M5.86376 5.48442l-0.949524 0 0 -2.10544m0.949524 2.10544z"/>
  <line class="fil0 str0" x1="3.31451" y1="3.03839" x2="3.31451" y2= "2.52235" />
  <line class="fil0 str0" x1="3.32483" y1="1.92374" x2="3.32483" y2= "1.39738" />
  <line class="fil0 str0" x1="1.17811" y1="1.77924" x2="1.70447" y2= "1.77924" />
  <line class="fil0 str0" x1="2.44757" y1="1.4593" x2="2.44757" y2= "0.963909" />
  <path class="fil0 str0" d="M2.42693 1.98567l0 1.43458 -1.13529 0m1.13529 -1.43458z"/>
  <path class="fil0 str0" d="M4.0473 3.22416l0 -0.63989 0.825657 0 0 -0.949508m-0.825657 1.5894z"/>
  <line class="fil0 str0" x1="5.73991" y1="2.10951" x2="5.73991" y2= "1.65539" />
  <line class="fil0 str0" x1="5.76054" y1="3.47187" x2="5.76054" y2= "2.78037" />
  <line class="fil0 str0" x1="5.76054" y1="4.78261" x2="5.76054" y2= "4.07047" />
  <line class="fil0 str0" x1="4.87296" y1="7.70339" x2="4.87296" y2= "7.03254" />
  <line class="fil0 str0" x1="5.75023" y1="7.72404" x2="5.75023" y2= "6.23784" />
  <line class="fil0 str0" x1="6.55526" y1="6.18624" x2="6.55526" y2= "4.77229" />
  <line class="fil0 str0" x1="7.23643" y1="4.35945" x2="8.19626" y2= "4.35945" />
  <line class="fil0 str0" x1="8.2169" y1="5.1748" x2="8.2169" y2= "3.43057" />
  <line class="fil0 str0" x1="8.15497" y1="2.73908" x2="6.59654" y2= "2.73908" />
  <line class="fil0 str0" x1="7.21578" y1="1.58316" x2="6.58621" y2= "1.58316" />
  <path class="fil0 str0" d="M7.97953 2.05791l0 -0.443791 1.06304 0 0 2.2809m-1.06304 -1.83711z"/>
  <line class="fil0 str0" x1="9.1045" y1="4.58651" x2="9.1045" y2= "6.6197" />
  <path class="fil0 str0" d="M7.45317 5.1232l0 0.784382 0.784378 0 0 1.75454m-0.784378 -2.53892z"/>
  <line class="fil0 str0" x1="6.46236" y1="7.55891" x2="7.4738" y2= "7.55891" />
  <line class="fil0 str0" x1="9.04257" y1="7.74469" x2="9.04257" y2= "7.2596" />
  <path class="fil0 str0" d="M10.5804 4.98902l-0.681173 0 0 -1.94031m0.681173 1.94031z"/>
  <line class="fil0 str0" x1="9.91983" y1="2.35721" x2="9.91983" y2= "1.54187" />
  <line class="fil0 str0" x1="9.90952" y1="0.829732" x2="9.90952" y2= "0.117591" />
  <line class="fil0 str0" x1="9.06321" y1="0.809087" x2="9.06321" y2= "0.117591" />
  <line class="fil0 str0" x1="4.10921" y1="5.05095" x2="4.10921" y2= "3.9363" />
  <circle class="fil0 str1" cx="1.18843" cy="0.695558" r="0.237379"/>
  <circle class="fil0 str1" cx="2.08634" cy="1.78957" r="0.237379"/>
  <circle class="fil0 str1" cx="2.83976" cy="1.73797" r="0.237379"/>
  <circle class="fil0 str1" cx="3.65511" cy="1.72764" r="0.237379"/>
  <circle class="fil0 str1" cx="3.66543" cy="2.82165" r="0.237379"/>
  <circle class="fil0 str1" cx="2.79848" cy="3.81245" r="0.237379"/>
  <circle class="fil0 str1" cx="1.00266" cy="4.56586" r="0.237379"/>
  <circle class="fil0 str1" cx="1.90057" cy="6.15527" r="0.237379"/>
  <circle class="fil0 str1" cx="0.992336" cy="6.84676" r="0.237379"/>
  <circle class="fil0 str1" cx="1.80767" cy="7.46601" r="0.237379"/>
  <circle class="fil0 str1" cx="2.82944" cy="7.00159" r="0.237379"/>
  <circle class="fil0 str1" cx="3.68606" cy="8.02335" r="0.237379"/>
  <circle class="fil0 str1" cx="3.64479" cy="5.92821" r="0.237379"/>
  <circle class="fil0 str1" cx="2.7572" cy="5.32961" r="0.237379"/>
  <circle class="fil0 str1" cx="3.64479" cy="4.44201" r="0.237379"/>
  <circle class="fil0 str1" cx="4.60462" cy="5.90758" r="0.237379"/>
  <circle class="fil0 str1" cx="4.53237" cy="3.00743" r="0.237379"/>
  <circle class="fil0 str1" cx="6.15274" cy="1.42834" r="0.237379"/>
  <circle class="fil0 str1" cx="5.31676" cy="3.03839" r="0.237379"/>
  <circle class="fil0 str1" cx="6.17339" cy="4.41106" r="0.237379"/>
  <circle class="fil0 str1" cx="7.0197" cy="3.21384" r="0.237379"/>
  <circle class="fil0 str1" cx="6.99905" cy="2.33657" r="0.237379"/>
  <circle class="fil0 str1" cx="6.98872" cy="0.705884" r="0.237379"/>
  <circle class="fil0 str1" cx="8.45429" cy="0.685237" r="0.237379"/>
  <circle class="fil0 str1" cx="9.4554" cy="0.674927" r="0.237379"/>
  <circle class="fil0 str1" cx="10.1985" cy="1.2632" r="0.237379"/>
  <circle class="fil0 str1" cx="8.5575" cy="2.07855" r="0.237379"/>
  <circle class="fil0 str1" cx="8.6091" cy="3.69893" r="0.237379"/>
  <circle class="fil0 str1" cx="7.69055" cy="3.92598" r="0.237379"/>
  <circle class="fil0 str1" cx="9.43476" cy="3.3893" r="0.237379"/>
  <circle class="fil0 str1" cx="10.2088" cy="5.41217" r="0.237379"/>
  <circle class="fil0 str1" cx="10.1985" cy="6.86741" r="0.237379"/>
  <circle class="fil0 str1" cx="9.48636" cy="6.28944" r="0.237379"/>
  <circle class="fil0 str1" cx="8.59878" cy="6.28944" r="0.237379"/>
  <circle class="fil0 str1" cx="9.37283" cy="8.01302" r="0.237379"/>
  <circle class="fil0 str1" cx="7.03002" cy="8.02335" r="0.237379"/>
  <circle class="fil0 str1" cx="6.9784" cy="7.11512" r="0.237379"/>
  <circle class="fil0 str1" cx="6.98872" cy="5.85598" r="0.237379"/>
  <circle class="fil0 str1" cx="6.17339" cy="6.43394" r="0.237379"/>
  <circle class="fil0 str1" cx="5.29612" cy="7.42473" r="0.237379"/>
  <polyline class="fil0 str2" points="5.64701,0.613004 3.83055,0.654283 3.57253,1.13936 3.00778,1.18941 2.78815,0.664606 2.15748,0.608059 1.94184,1.26321 1.05425,1.54187 1.10585,2.2953 1.97248,2.356 1.95216,2.98679 0.876,3.38261 1.85928,3.95694 1.80767,5.1748 0.951043,5.49475 1.51869,6.54747 1.01074,7.97036 2.73135,7.98153 2.9563,7.54052 3.53124,7.42474 3.5902,6.56865 3.02208,6.12794 3.536,5.28051 4.43976,5.27831 4.5137,3.84317 3.24226,3.37898 2.912,2.43979 4.06793,2.24369 4.50738,2.09168 4.57485,1.4177 5.27546,1.5522 5.42509,2.38681 6.06244,2.56468 6.14986,3.14664 6.07017,3.65764 5.41377,3.85262 5.36835,5.01999 6.06586,5.21244 6.12177,5.78373 5.40441,5.95325 5.29611,6.64036 4.60588,6.76711 4.63335,8.04372 6.09026,8.05236 6.26147,7.07401 7.00614,6.4302 7.68887,6.42724 7.83331,7.21819 7.92791,7.94079 8.6437,7.979 8.85088,6.95207 9.70309,6.79518 9.97196,6.28618 9.56389,5.52563 9.47497,4.22526 8.73071,4.26042 8.29755,5.64044 7.77576,4.99094 6.96743,4.90002 7.00722,3.94148 7.59068,3.25546 8.50294,3.17327 8.58008,2.62082 7.7326,2.28472 7.65957,1.39739 8.52626,1.38059 9.51072,1.36152 9.47604,2.64621 10.19,2.83434 10.2707,4.30785 "/>
  <rect class="fil0 str3" x="0.58983" y="0.117592" width="10.0112" height="8.2257"/>
 </g>
</svg>
