<?xml version="1.0" encoding="UTF-8"?>
<!DOCTYPE svg PUBLIC "-//W3C//DTD SVG 1.1//EN" "http://www.w3.org/Graphics/SVG/1.1/DTD/svg11.dtd">
<!-- Creator: CorelDRAW -->
<svg xmlns="http://www.w3.org/2000/svg" xml:space="preserve" width="8.5in" height="11in" style="shape-rendering:geometricPrecision; text-rendering:geometricPrecision; image-rendering:optimizeQuality; fill-rule:evenodd; clip-rule:evenodd"
viewBox="0 0 8.5 11"
 xmlns:xlink="http://www.w3.org/1999/xlink">
 <defs>
  <style type="text/css">
   <![CDATA[
    .str2 {stroke:#1F1A17;stroke-width:0.003}
    .str0 {stroke:#DA251D;stroke-width:0.00694488}
    .str1 {stroke:#1F1A17;stroke-width:0.00694488}
    .fil0 {fill:none}
   ]]>
  </style>
 </defs>
 <g id="Layer_x0020_1">
  <metadata id="CorelCorpID_0Corel-Layer"/>
  <path class="fil0 str0" d="M4.87339 1.76339l-0.00186614 0.614039 0 2.17157m0.00186614 -2.78561z"/>
  <line class="fil0 str0" x1="3.0444" y1="2.3924" x2="4.87152" y2= "2.3924" />
  <line class="fil0 str0" x1="3.0444" y1="3.05885" x2="3.0444" y2= "2.39989" />
  <line class="fil0 str0" x1="2.49028" y1="1.76339" x2="2.49028" y2= "2.22017" />
  <line class="fil0 str0" x1="0.505906" y1="2.44482" x2="1.34458" y2= "2.44482" />
  <line class="fil0 str0" x1="0.505906" y1="3.56805" x2="1.32212" y2= "3.56805" />
  <line class="fil0 str0" x1="1.13491" y1="4.64635" x2="1.13491" y2= "5.23791" />
  <line class="fil0 str0" x1="1.84629" y1="4.66132" x2="1.84629" y2= "5.23043" />
  <line class="fil0 str0" x1="2.4753" y1="4.58644" x2="2.4753" y2= "5.29033" />
  <polyline class="fil0 str0" points="1.03008,5.76957 1.81634,5.76957 1.81634,7.13242 "/>
  <line class="fil0 str0" x1="2.46781" y1="6.451" x2="2.46781" y2= "6.77299" />
  <line class="fil0 str0" x1="2.46781" y1="7.73148" x2="2.46781" y2= "7.37205" />
  <polyline class="fil0 str0" points="3.05938,7.2148 3.05938,6.21887 3.67341,6.21887 "/>
  <polyline class="fil0 str0" points="4.34735,5.65725 3.65843,5.65725 3.65843,4.12966 "/>
  <line class="fil0 str0" x1="2.49776" y1="3.88255" x2="2.49776" y2= "3.50814" />
  <line class="fil0 str0" x1="2.50525" y1="3.07383" x2="2.50525" y2= "2.69193" />
  <line class="fil0 str0" x1="0.947709" y1="2.96899" x2="1.32961" y2= "2.96899" />
  <line class="fil0 str0" x1="1.86876" y1="2.73686" x2="1.86876" y2= "2.37743" />
  <polyline class="fil0 str0" points="1.85378,3.11876 1.85378,4.15961 1.03008,4.15961 "/>
  <polyline class="fil0 str0" points="3.02943,4.01734 3.02943,3.55307 3.62848,3.55307 3.62848,2.86416 "/>
  <line class="fil0 str0" x1="4.25749" y1="3.20861" x2="4.25749" y2= "2.87913" />
  <line class="fil0 str0" x1="4.27246" y1="4.19706" x2="4.27246" y2= "3.69535" />
  <line class="fil0 str0" x1="4.27246" y1="5.14806" x2="4.27246" y2= "4.63137" />
  <line class="fil0 str0" x1="3.62848" y1="7.26721" x2="3.62848" y2= "6.78048" />
  <line class="fil0 str0" x1="4.26498" y1="7.28219" x2="4.26498" y2= "6.20389" />
  <line class="fil0 str0" x1="4.84906" y1="6.16645" x2="4.84906" y2= "5.14057" />
  <line class="fil0 str0" x1="5.34328" y1="4.84104" x2="6.03968" y2= "4.84104" />
  <line class="fil0 str0" x1="6.05465" y1="5.43261" x2="6.05465" y2= "4.1671" />
  <line class="fil0 str0" x1="6.00972" y1="3.66539" x2="4.87901" y2= "3.66539" />
  <line class="fil0 str0" x1="5.3283" y1="2.82672" x2="4.87152" y2= "2.82672" />
  <polyline class="fil0 str0" points="5.88243,3.17117 5.88243,2.84918 6.65371,2.84918 6.65371,4.50407 "/>
  <line class="fil0 str0" x1="6.69864" y1="5.00578" x2="6.69864" y2= "6.48095" />
  <polyline class="fil0 str0" points="5.50053,5.39517 5.50053,5.96427 6.06963,5.96427 6.06963,7.23726 "/>
  <line class="fil0 str0" x1="4.78166" y1="7.16238" x2="5.5155" y2= "7.16238" />
  <line class="fil0 str0" x1="6.65371" y1="7.29717" x2="6.65371" y2= "6.94522" />
  <polyline class="fil0 str0" points="7.76945,5.29782 7.27523,5.29782 7.27523,3.89004 "/>
  <line class="fil0 str0" x1="7.2902" y1="3.38833" x2="7.2902" y2= "2.79676" />
  <line class="fil0 str0" x1="7.28272" y1="2.28008" x2="7.28272" y2= "1.76339" />
  <line class="fil0 str0" x1="6.66869" y1="2.2651" x2="6.66869" y2= "1.76339" />
  <line class="fil0 str0" x1="3.07435" y1="5.34275" x2="3.07435" y2= "4.53402" />
  <circle class="fil0 str1" cx="0.955197" cy="2.18273" r="0.172228"/>
  <circle class="fil0 str1" cx="1.60667" cy="2.97648" r="0.172228"/>
  <circle class="fil0 str1" cx="2.15331" cy="2.93904" r="0.172228"/>
  <circle class="fil0 str1" cx="2.74488" cy="2.93155" r="0.172228"/>
  <circle class="fil0 str1" cx="2.75237" cy="3.7253" r="0.172228"/>
  <circle class="fil0 str1" cx="2.12336" cy="4.44417" r="0.172228"/>
  <circle class="fil0 str1" cx="0.820413" cy="4.9908" r="0.172228"/>
  <circle class="fil0 str1" cx="1.47189" cy="6.14398" r="0.172228"/>
  <circle class="fil0 str1" cx="0.812925" cy="6.64569" r="0.172228"/>
  <circle class="fil0 str1" cx="1.40449" cy="7.09498" r="0.172228"/>
  <circle class="fil0 str1" cx="2.14582" cy="6.75802" r="0.172228"/>
  <circle class="fil0 str1" cx="2.76734" cy="7.49935" r="0.172228"/>
  <circle class="fil0 str1" cx="2.73739" cy="5.97924" r="0.172228"/>
  <circle class="fil0 str1" cx="2.09341" cy="5.54493" r="0.172228"/>
  <circle class="fil0 str1" cx="2.73739" cy="4.90094" r="0.172228"/>
  <circle class="fil0 str1" cx="3.43379" cy="5.96427" r="0.172228"/>
  <circle class="fil0 str1" cx="3.38137" cy="3.86009" r="0.172228"/>
  <circle class="fil0 str1" cx="4.55702" cy="2.71439" r="0.172228"/>
  <circle class="fil0 str1" cx="3.95048" cy="3.88255" r="0.172228"/>
  <circle class="fil0 str1" cx="4.572" cy="4.87848" r="0.172228"/>
  <circle class="fil0 str1" cx="5.18603" cy="4.00985" r="0.172228"/>
  <circle class="fil0 str1" cx="5.17105" cy="3.37335" r="0.172228"/>
  <circle class="fil0 str1" cx="5.16356" cy="2.19022" r="0.172228"/>
  <circle class="fil0 str1" cx="6.22689" cy="2.17524" r="0.172228"/>
  <circle class="fil0 str1" cx="6.95324" cy="2.16776" r="0.172228"/>
  <circle class="fil0 str1" cx="7.49239" cy="2.59458" r="0.172228"/>
  <circle class="fil0 str1" cx="6.30177" cy="3.18615" r="0.172228"/>
  <circle class="fil0 str1" cx="6.33921" cy="4.3618" r="0.172228"/>
  <circle class="fil0 str1" cx="5.67276" cy="4.52654" r="0.172228"/>
  <circle class="fil0 str1" cx="6.93826" cy="4.13715" r="0.172228"/>
  <circle class="fil0 str1" cx="7.49988" cy="5.60483" r="0.172228"/>
  <circle class="fil0 str1" cx="7.49239" cy="6.66067" r="0.172228"/>
  <circle class="fil0 str1" cx="6.9757" cy="6.24133" r="0.172228"/>
  <circle class="fil0 str1" cx="6.33172" cy="6.24133" r="0.172228"/>
  <circle class="fil0 str1" cx="6.89333" cy="7.49186" r="0.172228"/>
  <circle class="fil0 str1" cx="5.19352" cy="7.49935" r="0.172228"/>
  <circle class="fil0 str1" cx="5.15607" cy="6.84039" r="0.172228"/>
  <circle class="fil0 str1" cx="5.16356" cy="5.92683" r="0.172228"/>
  <circle class="fil0 str1" cx="4.572" cy="6.34617" r="0.172228"/>
  <circle class="fil0 str1" cx="3.9355" cy="7.06503" r="0.172228"/>
  <path class="fil0 str1" d="M4.19009 2.12283l-1.31792 0.0299528c-0.0612795,0.00138976 -0.128776,0.293516 -0.187205,0.351945 -0.10522,0.10522 -0.348543,0.055878 -0.409748,0.0363071 -0.162634,-0.052 -0.067878,-0.340181 -0.159354,-0.380764 -0.175843,-0.0780157 -0.394098,-0.0680906 -0.477008,0.0658346 -0.0510354,0.0824409 0.029626,0.201831 -0.137024,0.36848 -0.205453,0.205453 -0.418512,0.061252 -0.643984,0.202181 -0.119579,0.0747362 -0.0585512,0.524173 0.0374409,0.546638 0.149228,0.0349213 0.462118,-0.0299134 0.628772,0.0440433 0.166654,0.0739606 0.19111,0.251815 -0.0147402,0.457665 -0.150622,0.150622 -0.609941,-0.053811 -0.673937,0.112323 -0.285634,0.741504 0.45176,0.382516 0.606543,0.591567 0.0868661,0.117319 0.0603504,0.745142 -0.0374409,0.883606 -0.115811,0.163988 -0.438059,-0.0187205 -0.62152,0.232134 -0.127732,0.470417 0.159665,0.51161 0.41185,0.763795 0.333787,0.333787 -0.619539,0.72502 -0.426827,0.906071 0.262543,0.24665 0.77248,0.225587 1.30666,0.134402 0.155083,-0.0264724 0.0749488,-0.241374 0.163213,-0.319972 0.145181,-0.129283 0.354126,-0.0157717 0.41715,-0.0840039 0.586189,-0.634638 -0.804654,-0.761606 -0.142276,-1.40029 0.225252,-0.217197 0.898583,0.104933 0.898583,-0.419339 0,-0.346969 0.0770709,-0.628866 -0.0434921,-0.778953 -0.155012,-0.192972 -0.548728,-0.212091 -0.922484,-0.336787 -0.307232,-0.1025 -0.42263,-0.498417 -0.239622,-0.681425 0.179047,-0.179047 0.500165,-0.142276 0.838677,-0.142276 0.037,0 0.234984,0.044685 0.318839,-0.110291 0.057374,-0.106035 -0.00238583,-0.401138 0.0489567,-0.488996 0.1295,-0.221598 0.257472,-0.152331 0.508323,0.0975787 0.0539291,0.0537244 -0.00188189,0.50985 0.108563,0.605551 0.0974488,0.0844449 0.353028,0.0391378 0.462425,0.129047 0.0895,0.0735591 0.0617638,0.242795 0.0634213,0.422236 0.0012874,0.139563 0.0617835,0.29124 -0.0578189,0.370756 -0.290437,0.193091 -0.374587,0.0373976 -0.476244,0.141465 -0.115217,0.117941 -0.0957598,0.321638 -0.0329528,0.846976 0.0195709,0.163705 0.363461,0.054185 0.506075,0.13963 0.161622,0.0968386 0.145437,0.261681 0.040563,0.414496 -0.104874,0.152815 -0.402799,0.0378071 -0.520476,0.122992 -0.145768,0.10552 0.0441496,0.365961 -0.0785787,0.498528 -0.135976,0.14687 -0.378689,-0.0354213 -0.500787,0.0919646 -0.140445,0.14652 -0.154232,0.53365 -0.0383622,0.829083 0.0794173,0.202484 0.515252,0.19028 0.921047,0.142276 0.475705,-0.0562756 0.308732,-1.22415 0.858803,-1.2158 0.0805787,0.00122441 0.169598,0.0187323 0.271913,0.182433 0.0991969,0.158705 0.196559,0.298106 0.22137,0.457291 0.0248071,0.159185 -0.0229134,0.338181 0.175504,0.456268 0.297091,0.176819 0.487035,0.0288425 0.53876,-0.186 0.0517244,-0.214843 -0.0183583,-0.370299 0.130894,-0.531354 0.0876339,-0.0945591 0.480846,-0.00318898 0.618315,-0.113835 0.10548,-0.0848937 0.221224,-0.206138 0.195071,-0.369299 -0.0296378,-0.184913 -0.21387,-0.415177 -0.296067,-0.551807 -0.151626,-0.252031 0.0196142,-0.672181 -0.0839449,-0.846327 -0.141913,-0.238654 -0.561244,-0.206882 -0.578854,0.307236 -0.00866535,0.253063 0.0843228,0.371307 -0.172228,0.531661 -0.31939,0.199626 -0.299189,-0.264681 -0.576591,-0.479244 -0.314815,-0.243504 -0.469634,-0.0380433 -0.45678,-0.554126 0.00382677,-0.153665 0.146311,-0.37602 0.388173,-0.509161 0.310969,-0.171181 0.737331,-0.248709 0.727567,-0.411886 -0.0129882,-0.217087 -0.353941,-0.147925 -0.576024,-0.389575 -0.133252,-0.144988 -0.142406,-0.382134 -0.0529843,-0.643795 0.0629764,-0.18428 1.10089,-0.160303 1.22651,-0.0260276 0.141516,0.15126 -0.052378,0.691358 0.0914094,0.932098 0.0843622,0.141252 0.410827,0.0220236 0.517976,0.136496 0.165622,0.176945 0.0624409,0.780559 0.0586142,1.0691"/>
  <rect class="fil0 str2" x="0.520886" y="1.76339" width="7.26354" height="5.96809"/>
 </g>
</svg>
