<?xml version="1.0" encoding="UTF-8"?>
<!DOCTYPE svg PUBLIC "-//W3C//DTD SVG 1.1//EN" "http://www.w3.org/Graphics/SVG/1.1/DTD/svg11.dtd">
<!-- Creator: CorelDRAW -->
<svg xmlns="http://www.w3.org/2000/svg" xml:space="preserve" width="8.5in" height="11in" style="shape-rendering:geometricPrecision; text-rendering:geometricPrecision; image-rendering:optimizeQuality; fill-rule:evenodd; clip-rule:evenodd"
viewBox="0 0 8.5 11"
 xmlns:xlink="http://www.w3.org/1999/xlink">
 <defs>
  <style type="text/css">
   <![CDATA[
    .str1 {stroke:#1F1A17;stroke-width:0.00694488}
    .str0 {stroke:#FFF974;stroke-width:0.0555551}
    .str3 {stroke:#75C5F0;stroke-width:0.11111}
    .str4 {stroke:#DB214C;stroke-width:0.11111}
    .str2 {stroke:#75C5F0;stroke-width:0.11111}
    .fil0 {fill:none}
    .fil1 {fill:#DA251D}
   ]]>
  </style>
 </defs>
 <g id="Layer_x0020_1">
  <metadata id="CorelCorpID_0Corel-Layer"/>
  <rect class="fil0 str0" x="0.304323" y="1.95301" width="8.00135" height="6.68154"/>
  <circle class="fil1 str1" cx="1.32856" cy="3.20157" r="0.2"/>
  <circle class="fil1 str1" cx="1.98346" cy="4.85384" r="0.2"/>
  <circle class="fil1 str1" cx="1.19106" cy="6.70983" r="0.2"/>
  <circle class="fil1 str1" cx="4.70807" cy="5.36376" r="0.2"/>
  <circle class="fil1 str1" cx="5.42297" cy="3.6489" r="0.2"/>
  <circle class="fil1 str1" cx="5.36984" cy="7.5674" r="0.2"/>
  <circle class="fil1 str1" cx="7.38894" cy="4.45265" r="0.2"/>
  <circle class="fil1 str1" cx="7.36144" cy="6.96479" r="0.2"/>
  <path class="fil0 str2" d="M0.952925 3.23157l0 0.710921 0 -0.0225709m0 -0.68835z"/>
  <line class="fil0 str2" x1="0.370283" y1="5.22255" x2="2.82005" y2= "5.22255" />
  <line class="fil0 str2" x1="2.41143" y1="7.28313" x2="2.41143" y2= "8.58957" />
  <line class="fil0 str2" x1="2.4478" y1="8.02343" x2="5.67859" y2= "8.02343" />
  <line class="fil0 str2" x1="5.70104" y1="4.79364" x2="5.70104" y2= "8.03153" />
  <line class="fil0 str2" x1="3.66759" y1="3.46156" x2="3.66759" y2= "6.39587" />
  <line class="fil0 str3" x1="1.37287" y1="4.7127" x2="1.37287" y2= "5.20191" />
  <line class="fil0 str3" x1="2.4238" y1="4.75577" x2="2.4238" y2= "5.24498" />
  <line class="fil0 str3" x1="4.30169" y1="7.47785" x2="4.30169" y2= "7.96706" />
  <line class="fil0 str3" x1="7.70428" y1="5.46554" x2="8.30567" y2= "5.46554" />
  <line class="fil0 str3" x1="7.87657" y1="3.59627" x2="8.30567" y2= "3.59627" />
  <line class="fil0 str3" x1="6.54998" y1="7.73107" x2="6.54998" y2= "8.63455" />
  <line class="fil0 str3" x1="5.70104" y1="6.52509" x2="7.532" y2= "6.5337" />
  <line class="fil0 str3" x1="6.92039" y1="7.18838" x2="6.95485" y2= "3.1311" />
  <line class="fil0 str3" x1="5.70104" y1="4.79364" x2="6.94064" y2= "4.80417" />
  <line class="fil0 str3" x1="5.12003" y1="5.33633" x2="5.70104" y2= "5.33633" />
  <line class="fil0 str3" x1="4.78408" y1="6.42172" x2="1.65713" y2= "6.42172" />
  <polyline class="fil0 str3" points="1.06276,7.20561 1.62268,7.20561 1.63129,6.12883 "/>
  <line class="fil0 str3" x1="0.952925" y1="3.4929" x2="3.66759" y2= "3.4929" />
  <line class="fil0 str3" x1="3.66759" y1="4.0442" x2="5.30093" y2= "4.05282" />
  <line class="fil0 str3" x1="6.94709" y1="4.04407" x2="7.48031" y2= "4.0442" />
  <line class="fil0 str3" x1="0.304323" y1="6.09438" x2="0.735417" y2= "6.09438" />
  <polyline class="fil0 str3" points="1.52792,2.72624 1.51931,2.4592 4.95636,2.45058 4.94775,2.4592 "/>
  <polyline class="fil0 str3" points="4.93052,1.95301 4.93052,3.1914 5.44737,3.1914 "/>
  <polyline class="fil0 str3" points="6.12789,2.59702 6.64474,2.59702 6.66197,3.18279 7.39417,3.17417 "/>
  <path class="fil0 str4" d="M4.44813 2.20077l-2.89436 -0.0258425c-0.673311,0.283953 -1.00175,0.444846 -0.947559,1.30935 0.0960394,1.5322 0.457343,0.787213 1.20598,0.628835 0.784898,-0.166051 1.57502,0.471406 1.37827,1.24044 -0.150122,0.58676 -0.525402,0.437012 -0.886087,0.437012 -0.160886,0 -0.648276,-0.137783 -0.749165,-0.0741417 -0.464425,0.292961 -0.862626,0.810035 -1.04376,1.40304 -0.122205,0.400087 0.0484213,0.602992 0.379024,0.602992 0.207181,0 0.399429,-0.0344567 0.611606,-0.0344567 0.0980354,0 0.447937,0.0775276 0.447937,0.0689134 0.0490551,-0.138992 0.0317205,-0.321866 0.0947559,-0.447937 0.0689567,-0.137917 0.0689134,-0.274453 0.0689134,-0.430709 0.221165,-0.0279921 0.502953,-0.0689134 0.723591,-0.0689134 0.158587,0 0.0300787,0.103882 0.0172283,0.215354 -0.00516535,0.0447913 -0.0423661,0.492752 0.0172283,0.499622 0.259272,0.0298976 0.621819,0.0172283 0.870031,0.0172283 -0.021752,-0.239276 0.051685,-0.398531 0.051685,-0.585764 0,-0.11239 -0.00733465,0.147213 -0.0172283,0.00861417 -0.0211929,-0.296921 0.732673,-0.149256 0.913102,-0.146441l0.551307 0.00861417c-0.0323898,-0.15835 0.069378,-0.835575 0,-0.835575 -0.162138,0 -0.598323,-0.0307874 -0.723591,-0.129213 -0.0618622,-0.0486024 -0.335953,0.00590157 -0.335953,-0.0602992 -0.155055,-0.197303 -0.299413,-0.681043 0.0602992,-0.870031 0.346732,-0.246366 0.576201,-0.247291 0.904488,-0.292882 0.0411496,-0.0057126 0.634913,-0.400421 0.68052,-0.456551 0.116512,-0.143402 0.314449,-0.353295 0.353181,-0.508236 -0.0134764,-0.0567992 -0.0736457,-0.544531 -0.155055,-0.551307 -0.0451693,-0.00375984 -0.163669,-0.0465157 -0.163669,-0.0947559 0,-0.0550669 -0.0443425,0.00124409 -0.0689134,-0.051685 -0.0290827,-0.0626575 -0.0310512,-0.0602992 -0.0947559,-0.0602992l-0.132969 -0.379465 0.210496 -0.283827c0.295465,0.0537205 0.706748,-0.0475197 1.05878,0.0209921 0.199157,0.0387598 0.227075,0.279681 0.36526,0.382307 0.156606,0.116311 0.402161,0.209843 0.402161,0.466732 0,0.297949 0.457756,1.12228 0.361795,1.47302 -0.0457953,0.167402 -0.364248,0.302374 -0.506579,0.516264 -0.208028,0.312606 -0.225811,0.705732 -0.00165748,0.887846 0.521114,0.423382 0.526988,0.355547 0.456551,1.07677 -0.0689134,0.705638 -0.446067,0.611606 -0.775276,0.611606 -0.0925669,0 -0.8485,-0.748346 -0.904488,-0.20674 -0.051815,0.501209 0.133945,0.360776 -0.301496,0.878646 -0.585083,0.0224134 -0.371744,-0.0258425 -0.844189,-0.0258425 -0.368886,0 -0.49765,0.0610079 -0.870031,0.0775276 -0.471232,0.0209094 -0.922748,-0.051685 -1.22321,-0.051685"/>
 </g>
</svg>
