<?xml version="1.0" encoding="UTF-8"?>
<!DOCTYPE svg PUBLIC "-//W3C//DTD SVG 1.1//EN" "http://www.w3.org/Graphics/SVG/1.1/DTD/svg11.dtd">
<!-- Creator: CorelDRAW -->
<svg xmlns="http://www.w3.org/2000/svg" xml:space="preserve" width="8.5in" height="11in" style="shape-rendering:geometricPrecision; text-rendering:geometricPrecision; image-rendering:optimizeQuality; fill-rule:evenodd; clip-rule:evenodd"
viewBox="0 0 8.5 11"
 xmlns:xlink="http://www.w3.org/1999/xlink">
 <defs>
  <style type="text/css">
   <![CDATA[
    .str2 {stroke:#1F1A17;stroke-width:0.00694488}
    .str0 {stroke:#DD137B;stroke-width:0.0277795}
    .str1 {stroke:#FFF974;stroke-width:0.0555551}
    .str3 {stroke:#75C5F0;stroke-width:0.11111}
    .str4 {stroke:#75C5F0;stroke-width:0.13889}
    .fil0 {fill:none}
    .fil1 {fill:#DA251D}
   ]]>
  </style>
   <clipPath id="id0">
    <rect x="0.191394" y="1.89512" width="8.17711" height="6.76046"/>
   </clipPath>
 </defs>
 <g id="Layer_x0020_1">
  <metadata id="CorelCorpID_0Corel-Layer"/>

  <path class="fil0 str0" d="M5.01989 2.29671l-2.65337 -0.0274961c-0.585161,-0.00606299 -0.536685,0.218429 -0.470539,0.749484 0.0338504,0.271772 -0.0775906,0.611087 0.0564055,0.893035 0.0815197,0.171528 0.287315,0.260988 0.355697,0.422165 0.24424,0.575654 -0.0703858,1.26984 -0.55335,1.33795 -0.713693,0.100654 -1.02118,-0.0921181 -1.23045,1.02423 -0.17474,0.93215 0.57776,0.775343 1.08609,0.446811 0.677134,-0.437626 1.1787,0.215571 1.08609,-0.859252 -0.00939764,-0.109106 0.679496,-0.0721496 0.811134,-0.0549921 0.427413,0.0557205 -0.138311,0.982287 0.371197,1.19608 1.1016,0.462236 0.601476,-1.68769 0.116858,-2.0897 -0.268677,-0.222882 -0.620189,-0.392531 -0.755138,-0.722807 -0.134949,-0.330276 -0.0628701,-0.76561 -0.0628701,-1.13318 0,-0.198244 -0.0624646,-0.38737 -0.0051063,-0.485614 0.0962992,-0.164945 0.706386,-0.108055 0.85661,-0.00160236 0.15539,0.11011 -0.0645,0.447972 0.0489921,0.445972l1.5604 -0.0274961c0.591697,-0.0104252 0.476335,-0.536173 1.51228,-0.536173 0.269315,0 0.59326,-0.093811 0.70587,0.00880709 0.121126,0.110386 0.154602,0.59611 0.00215354,0.712965 -0.0800945,0.0613976 -0.428854,-0.0259173 -0.632012,0.0797677 -0.264047,0.137366 -0.395882,0.482335 -0.540378,0.686866 -0.235177,0.33289 -1.06463,0.54472 -1.25414,0.663161 -0.111858,0.0699094 -0.185043,0.417972 -0.10311,0.728646 0.0751535,0.284972 0.458689,-0.00890157 0.618661,0.130606 0.112122,0.0977756 -0.095311,0.420228 0.0893622,0.618661 0.20326,0.218402 0.414217,0.483693 0.504528,0.75515 0.0841811,0.253028 0.0393346,0.941524 -0.00959843,0.99085 -0.0978465,0.0986417 -0.422472,0.00339764 -1.36106,-0.013748 -0.94648,-0.0172874 -1.19342,0.0462559 -1.88348,-0.013748"/>
  <rect class="fil0 str1" x="0.304315" y="1.95301" width="8.00135" height="6.68154"/>
  <circle class="fil1 str2" cx="1.21856" cy="3.23157" r="0.2"/>
  <circle class="fil1 str2" cx="2.63461" cy="3.21783" r="0.2"/>
  <circle class="fil1 str2" cx="2.62086" cy="3.96022" r="0.2"/>
  <circle class="fil1 str2" cx="1.93346" cy="4.85384" r="0.2"/>
  <circle class="fil1 str2" cx="1.91971" cy="6.06367" r="0.2"/>
  <circle class="fil1 str2" cx="1.19106" cy="6.70983" r="0.2"/>
  <circle class="fil1 str2" cx="1.9472" cy="7.5622" r="0.2"/>
  <circle class="fil1 str2" cx="3.29451" cy="6.61359" r="0.2"/>
  <circle class="fil1 str2" cx="3.98191" cy="4.30392" r="0.2"/>
  <circle class="fil1 str2" cx="4.68306" cy="3.02535" r="0.2"/>
  <circle class="fil1 str2" cx="4.62807" cy="5.40376" r="0.2"/>
  <circle class="fil1 str2" cx="5.34297" cy="4.4689" r="0.2"/>
  <circle class="fil1 str2" cx="5.31547" cy="6.62734" r="0.2"/>
  <circle class="fil1 str2" cx="7.30894" cy="4.48265" r="0.2"/>
  <circle class="fil1 str2" cx="6.62154" cy="3.53403" r="0.2"/>
  <circle class="fil1 str2" cx="7.28144" cy="6.98479" r="0.2"/>
  <polyline class="fil0 str3" points="1.59663,1.95301 1.59663,2.87413 0.414299,2.87413 0.428047,2.87413 "/>
  <polyline class="fil0 str4" points="0.400551,4.37266 1.89909,4.37266 1.89909,4.41391 "/>
  <polyline class="fil0 str3" points="1.36291,3.52028 1.36291,4.38641 1.36291,4.35891 "/>
  <line class="fil0 str3" x1="0.373055" y1="5.14255" x2="1.87159" y2= "5.14255" />
  <line class="fil0 str3" x1="5.50107" y1="2.06299" x2="5.50107" y2= "3.12159" />
  <polyline class="fil0 str3" points="5.48732,2.57167 2.33902,2.57167 2.33902,3.57527 2.58649,3.57527 "/>
  <line class="fil0 str3" x1="1.54164" y1="6.03617" x2="1.54164" y2= "6.83356" />
  <line class="fil0 str3" x1="1.06046" y1="6.35238" x2="1.52789" y2= "6.35238" />
  <polyline class="fil0 str3" points="2.21529,6.47611 2.21529,5.82995 3.96129,5.82995 3.96129,7.06727 "/>
  <line class="fil0 str3" x1="2.69647" y1="4.40016" x2="2.69647" y2= "5.8437" />
  <line class="fil0 str3" x1="3.17765" y1="5.11506" x2="2.65523" y2= "5.11506" />
  <line class="fil0 str3" x1="0.386803" y1="7.71343" x2="1.58288" y2= "7.71343" />
  <line class="fil0 str3" x1="1.59663" y1="7.39723" x2="1.59663" y2= "8.45582" />
  <line class="fil0 str3" x1="2.21529" y1="7.38348" x2="2.97143" y2= "7.38348" />
  <line class="fil0 str3" x1="2.97143" y1="6.66858" x2="2.97143" y2= "8.46957" />
  <line class="fil0 str3" x1="2.93019" y1="7.71343" x2="6.16098" y2= "7.71343" />
  <line class="fil0 str3" x1="5.68104" y1="6.88855" x2="5.68104" y2= "7.71343" />
  <line class="fil0 str3" x1="4.32499" y1="4.51014" x2="4.32499" y2= "5.29378" />
  <line class="fil0 str3" x1="3.61759" y1="3.34156" x2="3.61759" y2= "4.41391" />
  <polyline class="fil0 str3" points="3.63134,3.71276 4.95115,3.71276 4.95115,6.32488 "/>
  <line class="fil0 str3" x1="5.41858" y1="6.15991" x2="4.92365" y2= "6.15991" />
  <line class="fil0 str3" x1="5.72104" y1="5.40376" x2="6.50468" y2= "5.40376" />
  <polyline class="fil0 str3" points="7.3983,6.64109 7.3983,6.10491 6.51843,6.10491 6.51843,4.99132 8.15444,4.99132 "/>
  <polyline class="fil0 str3" points="5.6523,4.18019 5.6523,3.90523 6.29846,3.90523 6.29846,3.65777 "/>
  <polyline class="fil0 str3" points="6.90337,3.31406 6.90337,3.0666 7.52203,3.0666 7.52203,3.09409 "/>
  <line class="fil0 str3" x1="8.15444" y1="2.46169" x2="5.50107" y2= "2.46169" />
  <line class="fil0 str3" x1="6.88962" y1="7.14976" x2="6.88962" y2= "8.51082" />
 </g>
</svg>
